<svg xmlns="http://www.w3.org/2000/svg" version="1.1" xmlns:xlink="http://www.w3.org/1999/xlink" xmlns:svgjs="http://svgjs.dev/svgjs" viewBox="0 0 800 800" opacity="0.05"><defs><linearGradient x1="50%" y1="0%" x2="50%" y2="100%" id="uundulate-grad"><stop stop-color="hsl(53, 34%, 7%)" stop-opacity="1" offset="45%"></stop><stop stop-color="hsl(53, 34%, 7%)" stop-opacity="1" offset="100%"></stop></linearGradient></defs><g stroke-width="5" stroke="url(#uundulate-grad)" fill="none"><path d="M881.5195225483249 350.342420881065C933.2172254564318 555.6016519976777 898.3407627713509 740.6758962830709 820.8239592626473 857.7463660973824C743.3071557539438 974.8168359116942 691.0806064999424 921.2907214302454 509.4388657065465 912.2806759897596C327.7971249131506 903.2706305492741 50.06883645711605 965.6556491777683 -51.05639654565226 814.4981479830517C-152.18162954842057 663.3406467883351 -105.90629059203002 382.973855931249 24.037747293258917 186.72467025512208C153.98178517854785 -9.524515421004935 394.0329487922627 -161.58497464276195 572.6749853037346 -127.49794326235713C751.3170218152065 -93.4109118819523 829.8218196402181 145.08318976445253 881.5195225483249 350.342420881065C933.2172254564318 555.6016519976777 898.3407627713509 740.6758962830709 820.8239592626473 857.7463660973824 "></path><path d="M859.6322756848888 352.59955998652447C908.9800830062636 548.5288260523819 875.6889140795956 725.190604688439 801.6956016394697 836.9396895111911C727.7022891993433 948.688774333943 677.849674002342 897.5956650561966 504.46437597228237 888.995167135733C331.0790779422226 880.3946692152695 65.97480259782594 939.944005178832 -30.5538289048165 795.6572994929663C-127.082460407459 651.3705938071005 -82.91054594908621 383.74774798897283 41.1269447595987 196.41897984357888C165.1644354682836 9.09021169818493 394.30418255410234 -136.05840846803767 564.8261264968709 -103.52078760492401C735.3480704396397 -70.9831667418103 810.284468363514 156.67029392066706 859.6322756848888 352.59955998652447C908.9800830062636 548.5288260523819 875.6889140795956 725.190604688439 801.6956016394697 836.9396895111911 "></path><path d="M837.7450288214532 354.85685167987447C884.7429405560956 541.4561526949768 853.0370653878404 709.7054656816977 782.5672440162916 816.1331655128904C712.0974226447429 922.5608653440827 664.6187415047416 873.9007612700384 499.48988623801813 865.7098108695968C334.36103097129467 857.5188604691552 81.88076873853589 914.2325137677865 -10.051261263980734 776.8166035907716C-101.98329126649742 639.4006934137565 -59.91480130614235 384.5217926345872 58.21614222593848 206.1134420199262C176.34708575801938 27.70509140526542 394.575416315942 -110.53168970542276 556.9772676900074 -79.54347935960021C719.3791190640727 -48.55526901377766 790.7471170868102 168.25755066477222 837.7450288214532 354.85685167987447C884.7429405560956 541.4561526949768 853.0370653878404 709.7054656816977 782.5672440162916 816.1331655128904 "></path><path d="M815.8578124755952 357.11386871502145C860.5058286235057 534.3832046793686 830.3852472136632 694.2200520167535 763.4389169106921 795.3263668563864C696.4925866077206 896.4326816960192 651.3878395247193 850.2055828256771 494.515427021332 842.4241799452575C337.6430145179447 834.6427770648384 97.78676539682397 888.5207476985379 10.451336894433098 757.9756330303735C-76.88409160795766 627.4305183622093 -36.91902614562042 385.29556262199844 75.30537020985645 215.80762953807061C187.52976656533326 46.319696454142786 394.84668059535966 -85.00524560101104 549.1284394007218 -55.5664457724796C703.4101982060838 -26.127645943948153 771.2097963276847 179.84453275067415 815.8578124755952 357.11386871502145C860.5058286235057 534.3832046793686 830.3852472136632 694.2200520167535 763.4389169106921 795.3263668563864 "></path><path d="M793.9705656121591 359.3710688556371C836.2686861733378 527.3104397692291 807.7333985219079 678.734821457278 744.310559287514 774.5197513053513C680.8877200531201 870.3046811534246 638.156907027119 826.5105874867845 489.5409372870679 819.1387321263874C340.92496754701665 811.7668767659898 113.69273153753386 862.8091647347578 30.95390453526886 739.1348455754444C-51.78492246699608 615.4605264161308 -13.92328150267656 386.06951571487843 92.39456767619623 225.50200016168367C198.71241685506902 64.9344846084889 395.1179143571993 -59.47861839113051 541.2795805938581 -31.589229079890174C687.441246830517 -3.6998397686498947 751.672445050981 191.43169794204493 793.9705656121591 359.3710688556371C836.2686861733378 527.3104397692291 807.7333985219079 678.734821457278 744.310559287514 774.5197513053513 "></path><path d="M772.083257713567 361.62820796109645C812.031482688013 520.2376138239334 785.0814887949964 663.2495298626463 725.1821406291799 753.71307471916C665.2827924633635 844.1766195756734 624.9259134943625 802.8155311127357 484.5663865176474 795.8532232723605C344.20685954093244 788.8909154319849 129.5986366430875 837.0975207358215 51.456411140948376 720.293997085359C-26.68581436119075 603.4904734348961 9.072402105111053 386.8434077726022 109.48370410737976 235.19630975014047C209.89500610964853 83.54921172767871 395.3890870838827 -33.95205221640623 533.4306607518382 -7.612073422457058C671.4722344197938 18.727905371492113 732.1350327391208 203.01880209825947 772.083257713567 361.62820796109645C812.031482688013 520.2376138239334 785.0814887949964 663.2495298626463 725.1821406291799 753.71307471916 "></path><path d="M750.1960718852874 363.88537758413395C787.7944012730013 513.1648183962159 762.4297011383974 647.7642687855927 706.0538440411583 732.9064286505468C649.6779869439193 818.0485885155006 611.6950420319183 779.120505256265 479.5919578185395 772.5677449359118C347.48887360516073 766.0149846155587 145.5046638189537 811.3859072544635 71.95903981694039 701.4531791128516C-1.5865841850729225 591.5204509712396 32.06820778321111 387.61733034790404 126.5729626088758 244.8906498561754C221.07771743454055 102.1639693644467 395.6603818808786 -8.425455524103882 525.5818629801308 16.365112752554182C655.503344079383 41.155681029212246 712.5977424975733 214.60593677205202 750.1960718852874 363.88537758413395C787.7944012730013 513.1648183962159 762.4297011383974 647.7642687855927 706.0538440411583 732.9064286505468 "></path><path d="M728.3088250218515 366.1425166895933C763.5572588228333 506.0919924509201 739.777852446642 632.278977190961 686.9254864179806 712.0997520643552C634.073120389319 791.9205269377496 598.4641095343179 755.4254488822162 474.6174680842753 749.282236081885C350.77082663423266 743.139023281554 161.41062995966365 785.6742632555274 92.46160745777615 682.6123306227661C23.512584955888656 579.5503979900049 55.06395242615497 388.3912224056279 143.66216007521564 254.5849594446322C232.2603677242763 120.77869648363657 395.93161564271827 17.1011106506204 517.7330041732673 40.342268409987355C639.5343927038163 63.583426169354254 693.0603912208694 226.19304092826656 728.3088250218515 366.1425166895933C763.5572588228333 506.0919924509201 739.777852446642 632.278977190961 686.9254864179806 712.0997520643552 "></path><path d="M706.4215171232593 368.3997473477872C739.3200553375091 499.0192580583589 717.1259427197305 616.7937771490635 667.7970677596463 691.2931670308983C618.4681927995622 765.7925569127328 585.2331160015613 731.7304840609019 469.6429173148549 725.9968187805929C354.05271862814845 720.2631535002838 177.3165350652173 759.9627108093255 112.96411406345567 663.7715736854151C48.61169306169404 567.5804365615045 78.05963603394252 389.165206016086 160.75129650639917 264.2793605858235C243.44295697885576 139.3935151555608 396.20278836940156 42.627768378079054 509.8840843312473 64.31951562015485C623.5653802930931 86.01126286223064 673.5229789090095 237.78023663721547 706.4215171232593 368.3997473477872C739.3200553375091 499.0192580583589 717.1259427197305 616.7937771490635 667.7970677596463 691.2931670308983 "></path><path d="M684.5342702598233 370.65688645324656C715.0829128873411 491.9464321130631 694.4740940279751 601.3084855544316 648.6687101364685 670.4864904447068C602.8633262449619 739.6644953349819 572.002183503961 708.035427686853 464.6684275805907 702.7113099265661C357.3346716572205 697.3871921662791 193.22250120592724 734.2510668103893 133.46668170429143 644.9307251953295C73.71086220265562 555.6103835802699 101.05538067688639 389.93909807380976 177.84049397273895 273.9736701742802C254.62560726859152 158.00824227475061 396.4740221312412 68.15433455280333 502.0352255243836 88.29667127758796C607.596428917526 108.43900800237265 653.9856276323056 249.36734079343 684.5342702598233 370.65688645324656C715.0829128873411 491.9464321130631 694.4740940279751 601.3084855544316 648.6687101364685 670.4864904447068 "></path><path d="M662.6470233963875 372.91402555870604C690.845770437173 484.8736061677673 671.8222453362198 585.8231939597999 629.5403525132906 649.6798138585154C587.2584596903614 713.536433757231 558.7712510063607 684.3403713128042 459.69393784632643 679.4258010725393C360.6166246862924 674.5112308322745 209.12846734663714 708.5394228114532 153.9692493451272 626.0898767052441C98.8100313436172 543.6403305990352 124.05112531983019 390.7129901315335 194.92969143907874 283.667979762737C265.8082575583272 176.62296939394048 396.74525589308087 93.68090072752756 494.18636671752006 112.27382693502113C591.6274775419593 130.86675314251465 634.4482763556018 260.95444494964454 662.6470233963875 372.91402555870604C690.845770437173 484.8736061677673 671.8222453362198 585.8231939597999 629.5403525132906 649.6798138585154 "></path><path d="M640.7597765329515 375.17122569932155C666.608627987005 477.8008412576279 649.1703966444645 570.3379634003245 610.4119948901127 628.8731983074803C571.653593135761 687.4084332146361 545.5403185087603 660.6453759739118 454.7194481120623 656.1403532536689C363.89857771536435 651.6353305334261 225.0344334873471 682.8278398476732 174.4718169859629 607.2490892503149C123.90920048457878 531.6703386529566 147.04686996277405 391.4869432244136 212.01888890541852 293.3623503863501C276.990907848063 195.2377575482866 397.0164896549204 119.20752793740809 486.3375079106563 136.2510436276105C575.6585261663923 153.2945593178129 614.9109250788981 272.5416101410153 640.7597765329515 375.17122569932155C666.608627987005 477.8008412576279 649.1703966444645 570.3379634003245 610.4119948901127 628.8731983074803 "></path><path d="M618.8725296695156 377.42836480478104C642.3714855368369 470.7280153123322 626.5185479527092 554.8526718056926 591.2836372669349 608.066521721289C556.0487265811605 661.2803716368851 532.3093860111599 636.950319599863 449.7449583777982 632.8548443996422C367.1805307444364 628.7593691994214 240.94039962805698 657.116195848737 194.97438462679867 588.4082407602295C149.00836962554035 519.700285671722 170.04261460571786 392.26083528213735 229.1080863717583 303.05665997480685C288.17355813779875 213.85248466747646 397.28772341676006 144.73409411213237 478.4886491037928 160.22819928504362C559.6895747908254 175.72230445795492 595.3735738021942 284.12871429722986 618.8725296695156 377.42836480478104C642.3714855368369 470.7280153123322 626.5185479527092 554.8526718056926 591.2836372669349 608.066521721289 "></path><path d="M596.9852522885014 379.68556494539666C618.1343125690908 463.6552504021927 603.8666687433758 539.3674412462171 572.1552491261789 587.2599061702538C540.4438295089819 635.1523710942904 519.0784229959813 613.2553242609704 444.7704381259558 609.5693965807718C370.4624532559302 605.883468900573 256.8463352511888 631.404612884957 215.4769217500563 569.5674533053003C174.1075082489238 507.7302937256436 193.0383287310836 393.03478837501734 246.19725332051996 312.75103059841996C299.3561779099564 232.46727282182258 397.5589266610216 170.26072132201284 470.6397597793509 184.20541597763304C543.7205928976804 198.15011063325318 575.8361920079124 295.7158794886006 596.9852522885014 379.68556494539666C618.1343125690908 463.6552504021927 603.8666687433758 539.3674412462171 572.1552491261789 587.2599061702538 "></path><path d="M575.0980054250656 381.94270405085604C593.8971701189225 456.582424456897 581.2148200516206 523.8821496515855 553.026891503001 566.4532295840625C524.8389629543815 609.0243095165393 505.84749049838103 589.5602678869216 439.7959483916916 586.283887726745C373.74440628500224 583.0075075665684 272.75230139189875 605.6929688860208 235.97948939089207 550.7266048152148C199.20667738988544 495.76024074440886 216.03407337402746 393.8086804327411 263.2864507868598 322.44534018687676C310.53882819969215 251.08199994101244 397.8301604228611 195.78728749673712 462.7909009724873 208.18257163506615C527.7516415221135 220.57785577339519 556.2988407312085 307.3029836448151 575.0980054250656 381.94270405085604C593.8971701189225 456.582424456897 581.2148200516206 523.8821496515855 553.026891503001 566.4532295840625 "></path><path d="M553.2107585616296 384.19985841510453C569.6600276687545 449.5096137703904 558.5629713598653 508.3968733157427 533.8985338798232 545.6465682566601C509.23409639978104 582.8962631975774 492.6165580007806 565.8652267716618 434.82145865742746 562.9983941315074C377.0263593140742 560.1315614913528 288.65826753260865 579.9813401458737 256.48205703172783 531.8857715839185C224.30584653084702 483.7902030219632 239.02981801697126 394.58258774925395 280.3756482531996 332.1396650341227C321.7214784894279 269.6967423189913 398.1013941847008 221.31386893025046 454.94204216562366 232.15974255128833C511.78269014654654 243.00561617232626 536.7614894545047 318.89010305981867 553.2107585616296 384.19985841510453C569.6600276687545 449.5096137703904 558.5629713598653 508.3968733157427 533.8985338798232 545.6465682566601 "></path><path d="M531.3235116981937 386.45704329693115C545.4228852185865 442.4368336014618 535.9111226681099 492.9116274974781 514.7701762566453 524.8399374468358C493.6292298451807 556.7682473961936 479.38562550318034 542.1702161739802 429.8469689231632 539.7129310538478C380.3083123431462 537.2556459337154 304.5642336733186 554.2697419233048 276.9846246725636 513.0449688702001C249.4050156718086 471.82019581709574 262.0255626599151 395.3565255833449 297.46484571953937 341.8340203989466C332.9041287791636 288.31151521454836 398.37262794654043 246.84048088134193 447.09318335876003 256.1369439850887C495.8137387709796 265.43340708883545 517.2241381778009 330.4772529924004 531.3235116981937 386.45704329693115C545.4228852185865 442.4368336014618 535.9111226681099 492.9116274974781 514.7701762566453 524.8399374468358 "></path><path d="M509.4362800935469 388.71421291996865C521.1857580272075 435.36403817374423 513.2592892351437 477.4263664204244 495.6418338922565 504.03329137822266C478.0243785493693 530.6402163360207 466.154708264369 518.4751903175096 424.87249444768815 516.4274527173992C383.59028063100726 514.3797151172888 320.47021507281755 528.5581284419466 297.4872075721884 494.2041508976929C274.50420007155924 459.8501733534391 285.021322561648 396.1304481586468 314.5540584446682 351.52836050498155C344.08679432768844 306.92627285131636 398.6438769671691 272.3670775736443 439.24433981068546 280.11413016009993C479.84480265420177 287.8611827465556 497.68680215988616 342.06438766619306 509.4362800935469 388.71421291996865C521.1857580272075 435.36403817374423 513.2592892351437 477.4263664204244 495.6418338922565 504.03329137822266 "></path><path d="M487.54898745374373 390.971352025428C496.9485698006722 428.2912122284485 490.6073947670212 461.9410748257927 476.51343049271145 483.2266147920312C462.4194662184017 504.5121547582696 452.92372999040145 494.7801339434608 419.8979589370567 493.1419438633725C386.87218788371206 491.5037537832842 336.3761354371603 502.84648444301047 317.989729436657 475.3633024076074C299.60332343615363 447.88012037220443 308.01702142822467 396.90434021637054 331.6432101346408 361.2226700934384C355.269398841057 325.5409999705062 398.9150649526415 297.89364374836856 431.3954352274546 304.0912858175331C463.87580550226767 310.2889278866976 478.1494051068152 353.65149182240754 487.54898745374373 390.971352025428C496.9485698006722 428.2912122284485 490.6073947670212 461.9410748257927 476.51343049271145 483.2266147920312 "></path><path d="M465.66175584909683 393.2285063896765C472.7114426092933 421.21840154194183 467.95556133405495 446.45579848995 457.38508812832265 462.41995346462886C446.81461492259035 478.38410843930774 439.69281275159017 471.085092828201 414.9234844615816 469.85645026813484C390.1541561715731 468.62780770806864 352.28211683665927 477.1348557028633 338.49231233628177 456.522469176311C324.70250783590427 435.9100826497588 331.01278132995753 397.67824753288335 348.7324228597697 370.9169949406843C366.45206438958184 344.15574234848515 399.1863139732702 323.4202251818819 423.54659167938 328.0684567337553C447.9068693854898 332.71668828562866 458.61206908890045 365.23861123741113 465.66175584909683 393.2285063896765C472.7114426092933 421.21840154194183 467.95556133405495 446.45579848995 457.38508812832265 462.41995346462886 "></path><path d="M443.77450898566093 395.485676012714C448.47430015912516 414.1456061142243 445.3037126422997 430.97053741289636 438.2567305051448 441.6133073960156C431.2097483679899 452.2560773791348 426.46188025398976 447.3900669717304 409.9489947273174 446.57097193168624C393.4361092006451 445.7518768916421 368.1880829773692 451.42324222150523 358.99487997711753 437.6816512038037C349.8016769768659 423.9400601861022 354.0085259729014 398.45217010818527 365.8216203261095 380.6113350467192C377.63471467931754 362.7704999852531 399.4575477351098 348.9468218741843 415.6977328725163 352.0456429087665C431.9379180099229 355.1444639433488 439.0747178121967 376.8257459112038 443.77450898566093 395.485676012714C448.47430015912516 414.1456061142243 445.3037126422997 430.97053741289636 438.2567305051448 441.6133073960156 "></path><path d="M421.88724686343596 397.74284563575156C424.23714245016805 407.07281068650667 422.6518486917553 415.4852763358427 419.12835762317786 420.8066613274023C415.60486655460045 426.12804631896194 413.23093249760035 423.69504111525976 404.9744897342642 423.28549359523765C396.718046970928 422.87594607521555 384.09403385929005 425.71162874014715 379.49743235916424 418.8408332312964C374.9008308590384 411.9700377224456 377.00425535705614 399.2260926834872 382.9108025336602 390.30567515275413C388.81734971026424 381.3852576220211 399.7287662381604 374.47341856648666 407.84885880686363 376.0228290837778C415.9689513755669 377.57223960106893 419.5373512767038 388.4128805849964 421.88724686343596 397.74284563575156C424.23714245016805 407.07281068650667 422.6518486917553 415.4852763358427 419.12835762317786 420.8066613274023 "></path></g></svg>